<svg xmlns="http://www.w3.org/2000/svg" width="24" height="24" viewBox="0 0 136 136" fill="none">
<g clip-path="url(#clip0_12_12)">
<rect width="135.729" height="135.729" fill="none"/>
<circle cx="67.8645" cy="67.8645" r="66.1679" fill="white" stroke="black" stroke-width="3.39323"/>
<path d="M77.8387 57.5942H100.123L100.538 57.7599C93.5236 70.0758 89.7128 76.5928 89.1053 77.3107H88.6911L77.5074 57.7599L77.8387 57.5942Z" fill="black"/>
<path fill-rule="evenodd" clip-rule="evenodd" d="M74.4422 9.04858C75.2154 9.93224 79.0814 16.532 86.0401 28.8479L85.7088 29.0136H63.0099C63.3413 28.0747 67.0968 21.4197 74.2765 9.04858H74.4422ZM63.0099 32.2445H85.7088C85.9297 32.2997 86.0401 32.4378 86.0401 32.6587C78.8052 45.3059 74.9392 51.8229 74.4422 52.2095C74.1108 51.8781 70.3001 45.4164 63.0099 32.8244V32.2445ZM60.0276 34.1498H60.1933C67.6491 47.1837 71.377 53.8387 71.377 54.1149H48.761L48.4297 53.9492C54.4496 43.3453 58.3155 36.7456 60.0276 34.1498ZM48.761 57.5942H71.377C71.377 57.9256 67.8424 64.194 60.7732 76.3995C60.3314 77.1727 60 77.5593 59.7791 77.5593L48.4297 57.7599L48.761 57.5942ZM74.6079 59.2511L86.0401 79.0504L85.7088 79.2161H63.0099C63.0099 78.94 66.5722 72.6716 73.6966 60.4109C74.1384 59.6377 74.4422 59.2511 74.6079 59.2511ZM45.3645 59.4996H45.6959L56.9624 79.0504L56.5482 79.2161H34.3465L33.9323 79.0504C40.9462 66.7345 44.757 60.2176 45.3645 59.4996ZM60.0276 84.3523L71.377 103.986V104.566H48.761C48.5401 104.566 48.4297 104.428 48.4297 104.152C56.0512 90.9521 59.9172 84.3523 60.0276 84.3523ZM48.761 107.797H71.377C70.2725 110.392 66.4893 117.047 60.0276 127.762C59.2544 126.878 55.3884 120.278 48.4297 107.962L48.761 107.797Z" fill="black"/>
<path d="M63.0099 82.6955H85.7088L86.0401 82.8612C80.0202 93.465 76.1543 100.065 74.4422 102.661H74.2765C66.7655 89.6266 63.0099 82.9716 63.0099 82.6955Z" fill="#EEAB00"/>
</g>
<defs>
<clipPath id="clip0_12_12">
<rect width="135.729" height="135.729" fill="white"/>
</clipPath>
</defs>
</svg>