<svg xmlns="http://www.w3.org/2000/svg" width="892" height="234" viewBox="0 0 892 234" fill="none">
<rect width="891.8" height="234" fill="white"/>
<path d="M20.8 176.02L40.456 37.726H51.922L33.67 167.83H74.152L72.748 176.02H20.8Z" fill="black"/>
<path d="M78.3347 176.02L94.7147 60.19H105.713L89.3327 176.02H78.3347ZM103.373 45.682C101.501 45.682 99.9407 45.058 98.6927 43.81C97.4447 42.406 96.8207 40.768 96.8207 38.896C96.8207 37.18 97.4447 35.698 98.6927 34.45C99.9407 33.202 101.501 32.578 103.373 32.578C105.245 32.578 106.805 33.202 108.053 34.45C109.457 35.698 110.159 37.18 110.159 38.896C110.159 40.768 109.457 42.406 108.053 43.81C106.805 45.058 105.245 45.682 103.373 45.682Z" fill="black"/>
<path d="M127.74 203.398C126.024 203.398 124.074 203.32 121.89 203.164C119.862 203.008 117.834 202.774 115.806 202.462C113.778 202.306 112.062 202.15 110.658 201.994C109.254 201.838 108.318 201.682 107.85 201.526L108.786 194.74C110.502 194.896 112.998 195.208 116.274 195.676C119.55 196.144 122.592 196.378 125.4 196.378C127.272 196.378 129.612 196.222 132.42 195.91C135.384 195.598 138.348 194.662 141.312 193.102C144.276 191.698 146.928 189.28 149.268 185.848C151.608 182.416 153.246 177.424 154.182 170.872L156.288 155.194C154.884 158.47 152.934 161.278 150.438 163.618C148.098 165.958 145.29 167.752 142.014 169C138.738 170.248 134.916 170.872 130.548 170.872C127.896 170.872 125.088 170.638 122.124 170.17C119.16 169.702 116.43 168.61 113.934 166.894C111.594 165.022 109.878 162.136 108.786 158.236C107.694 154.18 107.616 148.564 108.552 141.388L116.274 86.398C117.522 78.286 119.55 72.28 122.358 68.38C125.166 64.48 128.598 61.906 132.654 60.658C136.866 59.254 141.312 58.552 145.992 58.552C149.268 58.552 152.466 58.864 155.586 59.488C158.862 60.112 161.67 61.282 164.01 62.998C166.35 64.558 167.754 66.898 168.222 70.018L171.03 60.658H180.624L165.648 168.064C164.712 174.304 163.152 179.608 160.968 183.976C158.784 188.5 155.976 192.166 152.544 194.974C149.112 197.782 145.29 199.888 141.078 201.292C136.866 202.696 132.42 203.398 127.74 203.398ZM134.76 163.384C140.532 163.384 145.056 161.98 148.332 159.172C151.608 156.208 154.026 152.542 155.586 148.174C157.302 143.65 158.394 139.204 158.862 134.836L166.818 78.442C166.506 76.726 165.726 74.932 164.478 73.06C163.386 71.032 161.592 69.316 159.096 67.912C156.6 66.508 153.012 65.806 148.332 65.806C141.936 65.806 137.1 67.366 133.824 70.486C130.548 73.45 128.442 78.988 127.506 87.1L119.55 143.962C118.926 148.486 119.082 152.074 120.018 154.726C120.954 157.378 122.358 159.328 124.23 160.576C126.102 161.668 127.974 162.448 129.846 162.916C131.874 163.228 133.512 163.384 134.76 163.384Z" fill="black"/>
<path d="M180.048 176.02L200.64 28.6H211.404L205.554 69.316C207.894 65.884 211.092 63.232 215.148 61.36C219.36 59.332 224.352 58.318 230.124 58.318C236.52 58.318 241.434 59.176 244.866 60.892C248.298 62.608 250.716 64.948 252.12 67.912C253.524 70.72 254.226 73.996 254.226 77.74C254.226 81.328 253.992 85.072 253.524 88.972L241.356 176.02H230.124L241.824 91.546C242.292 89.05 242.604 86.398 242.76 83.59C242.916 80.782 242.604 78.208 241.824 75.868C241.044 73.372 239.406 71.344 236.91 69.784C234.57 68.068 230.904 67.21 225.912 67.21C221.388 67.21 217.566 67.99 214.446 69.55C211.482 70.954 209.22 72.67 207.66 74.698C206.1 76.726 205.164 78.442 204.852 79.846L191.28 176.02H180.048Z" fill="black"/>
<path d="M278.84 176.254C275.564 176.254 272.678 175.864 270.182 175.084C267.686 174.148 265.658 172.822 264.098 171.106C262.538 169.234 261.446 166.894 260.822 164.086C260.354 161.278 260.354 157.846 260.822 153.79L273.224 67.678H263.162L264.098 61.594L274.628 60.19L280.244 38.428H288.2L285.158 60.19H311.132L310.196 67.678H284.222L272.288 151.918C271.664 156.598 271.976 160.498 273.224 163.618C274.628 166.582 277.982 168.064 283.286 168.064C285.47 168.064 287.81 167.986 290.306 167.83C292.958 167.674 294.908 167.518 296.156 167.362L294.986 174.85C294.05 175.006 292.724 175.24 291.008 175.552C289.448 175.708 287.576 175.864 285.392 176.02C283.364 176.176 281.18 176.254 278.84 176.254Z" fill="black"/>
<path d="M301.637 176.02L317.783 60.19H326.909L326.675 72.358C329.171 67.21 332.759 63.622 337.439 61.594C342.119 59.41 346.877 58.318 351.713 58.318C358.109 58.318 363.023 59.176 366.455 60.892C369.887 62.608 372.227 64.948 373.475 67.912C374.879 70.72 375.581 73.996 375.581 77.74C375.581 81.328 375.347 85.072 374.879 88.972L362.945 176.02H351.713L363.647 91.078C363.959 88.114 364.193 85.228 364.349 82.42C364.661 79.456 364.427 76.882 363.647 74.698C362.867 72.358 361.229 70.486 358.733 69.082C356.393 67.678 352.727 66.976 347.735 66.976C343.211 66.976 339.467 67.834 336.503 69.55C333.695 71.11 331.433 72.982 329.717 75.166C328.157 77.35 326.987 79.378 326.207 81.25L312.869 176.02H301.637Z" fill="black"/>
<path d="M377.964 176.02L394.344 60.19H405.342L388.962 176.02H377.964ZM403.002 45.682C401.13 45.682 399.57 45.058 398.322 43.81C397.074 42.406 396.45 40.768 396.45 38.896C396.45 37.18 397.074 35.698 398.322 34.45C399.57 33.202 401.13 32.578 403.002 32.578C404.874 32.578 406.434 33.202 407.682 34.45C409.086 35.698 409.788 37.18 409.788 38.896C409.788 40.768 409.086 42.406 407.682 43.81C406.434 45.058 404.874 45.682 403.002 45.682Z" fill="black"/>
<path d="M406.544 176.02L422.689 60.19H431.816L431.581 72.358C434.077 67.21 437.665 63.622 442.345 61.594C447.025 59.41 451.783 58.318 456.619 58.318C463.015 58.318 467.929 59.176 471.361 60.892C474.793 62.608 477.133 64.948 478.381 67.912C479.785 70.72 480.488 73.996 480.488 77.74C480.488 81.328 480.254 85.072 479.786 88.972L467.852 176.02H456.619L468.553 91.078C468.865 88.114 469.1 85.228 469.255 82.42C469.567 79.456 469.333 76.882 468.553 74.698C467.773 72.358 466.135 70.486 463.639 69.082C461.299 67.678 457.633 66.976 452.642 66.976C448.118 66.976 444.373 67.834 441.409 69.55C438.601 71.11 436.339 72.982 434.623 75.166C433.063 77.35 431.894 79.378 431.114 81.25L417.775 176.02H406.544Z" fill="black"/>
<path d="M503.931 203.398C502.215 203.398 500.265 203.32 498.081 203.164C496.053 203.008 494.025 202.774 491.997 202.462C489.969 202.306 488.253 202.15 486.849 201.994C485.445 201.838 484.509 201.682 484.041 201.526L484.977 194.74C486.693 194.896 489.189 195.208 492.465 195.676C495.741 196.144 498.783 196.378 501.591 196.378C503.463 196.378 505.803 196.222 508.611 195.91C511.575 195.598 514.539 194.662 517.503 193.102C520.467 191.698 523.119 189.28 525.459 185.848C527.799 182.416 529.437 177.424 530.373 170.872L532.479 155.194C531.075 158.47 529.125 161.278 526.629 163.618C524.289 165.958 521.481 167.752 518.205 169C514.929 170.248 511.107 170.872 506.739 170.872C504.087 170.872 501.279 170.638 498.315 170.17C495.351 169.702 492.621 168.61 490.125 166.894C487.785 165.022 486.069 162.136 484.977 158.236C483.885 154.18 483.807 148.564 484.743 141.388L492.465 86.398C493.713 78.286 495.741 72.28 498.549 68.38C501.357 64.48 504.789 61.906 508.845 60.658C513.057 59.254 517.503 58.552 522.183 58.552C525.459 58.552 528.657 58.864 531.777 59.488C535.053 60.112 537.861 61.282 540.201 62.998C542.541 64.558 543.945 66.898 544.413 70.018L547.221 60.658H556.815L541.839 168.064C540.903 174.304 539.343 179.608 537.159 183.976C534.975 188.5 532.167 192.166 528.735 194.974C525.303 197.782 521.481 199.888 517.269 201.292C513.057 202.696 508.611 203.398 503.931 203.398ZM510.951 163.384C516.723 163.384 521.247 161.98 524.523 159.172C527.799 156.208 530.217 152.542 531.777 148.174C533.493 143.65 534.585 139.204 535.053 134.836L543.009 78.442C542.697 76.726 541.917 74.932 540.669 73.06C539.577 71.032 537.783 69.316 535.287 67.912C532.791 66.508 529.203 65.806 524.523 65.806C518.127 65.806 513.291 67.366 510.015 70.486C506.739 73.45 504.633 78.988 503.697 87.1L495.741 143.962C495.117 148.486 495.273 152.074 496.209 154.726C497.145 157.378 498.549 159.328 500.421 160.576C502.293 161.668 504.165 162.448 506.037 162.916C508.065 163.228 509.703 163.384 510.951 163.384Z" fill="black"/>
<path d="M659.36 184.6H642.2V36.985H672.815C691.34 36.985 696.41 48.295 696.41 86.125C696.41 123.37 691.535 136.825 672.62 136.825H659.36V184.6ZM659.36 119.665H669.89C675.935 119.665 679.055 112.645 679.055 85.735C679.055 59.02 675.74 54.34 669.695 54.34H659.36V119.665Z" fill="black"/>
<path d="M706.361 175.045C702.656 166.075 701.291 157.105 701.291 110.695C701.291 64.285 702.656 55.705 706.361 46.54C709.871 37.57 715.916 34.45 729.176 34.45C742.241 34.45 748.481 37.57 751.991 46.54C755.501 55.705 757.061 64.285 757.061 110.695C757.061 157.105 755.501 166.075 751.991 175.045C748.481 184.21 742.241 187.135 729.176 187.135C715.916 187.135 709.871 184.21 706.361 175.045ZM737.561 162.565C739.121 156.13 739.901 151.255 739.901 110.305C739.901 69.16 739.316 64.285 737.756 58.045C736.586 53.365 734.246 51.61 729.176 51.61C724.106 51.61 721.961 53.365 720.791 57.85C719.231 64.09 718.451 69.16 718.451 110.305C718.451 151.255 719.036 156.325 720.791 162.565C721.961 167.245 724.106 168.805 729.176 168.805C734.246 168.805 736.391 167.245 737.561 162.565Z" fill="black"/>
<path d="M763.103 135.265H777.923C777.533 137.995 777.338 141.505 777.338 146.965C777.338 158.47 777.728 162.175 779.483 165.685C781.043 168.61 782.798 169.585 787.088 169.585C792.158 169.585 793.913 168.61 795.668 165.295C797.423 161.59 797.813 157.3 797.813 144.235C797.813 134.095 797.618 131.95 796.643 128.05C795.668 124.54 794.303 123.175 790.403 120.445C783.968 115.96 774.218 110.305 768.953 105.04C763.688 99.775 761.933 93.73 761.933 68.965C761.933 52.585 763.688 45.76 768.368 40.495C772.463 36.01 777.143 34.45 787.283 34.45C799.178 34.45 804.638 37.18 807.953 41.665C811.463 46.54 812.633 52.975 812.633 66.04C812.633 74.425 812.243 79.495 811.463 82.81H796.838C797.228 80.275 797.423 76.765 797.423 70.72C797.423 60.97 796.838 56.875 794.693 53.95C793.133 51.805 791.378 51.415 787.283 51.415C783.188 51.415 781.628 52 780.068 54.34C778.313 57.265 777.728 60.97 777.728 71.305C777.728 83.395 777.728 85.345 778.898 89.05C780.068 92.365 780.848 93.34 784.943 96.46C789.623 100.165 796.838 103.675 802.883 107.965C807.563 111.28 809.318 112.84 811.268 116.935C813.413 121.615 813.998 124.93 813.998 144.43C813.998 164.71 812.048 171.73 808.733 177.97C805.613 183.82 799.178 187.135 786.893 187.135C776.363 187.135 770.708 185.185 767.003 178.555C763.688 172.705 762.128 167.245 762.128 150.67C762.128 143.845 762.713 138.775 763.103 135.265Z" fill="black"/>
<path d="M849.854 184.6H832.499V54.535H814.169V36.985H867.989V54.535H849.854V184.6Z" fill="black"/>
<path d="M607.986 95.373H633.599L634.075 95.5635C626.014 109.719 621.634 117.209 620.936 118.034H620.46L607.606 95.5635L607.986 95.373Z" fill="black"/>
<path fill-rule="evenodd" clip-rule="evenodd" d="M604.083 39.5771C604.971 40.5928 609.415 48.1782 617.413 62.3335L617.032 62.5239H590.943C591.324 61.4448 595.64 53.7959 603.892 39.5771H604.083ZM590.943 66.2373H617.032C617.286 66.3008 617.413 66.4595 617.413 66.7134C609.097 81.2495 604.654 88.7397 604.083 89.1841C603.702 88.8032 599.322 81.3765 590.943 66.9038V66.2373ZM587.515 68.4272H587.706C596.275 83.4077 600.56 91.0566 600.56 91.374H574.566L574.185 91.1836C581.104 78.9961 585.547 71.4106 587.515 68.4272ZM574.566 95.373H600.56C600.56 95.7539 596.497 102.958 588.372 116.987C587.864 117.875 587.483 118.32 587.23 118.32L574.185 95.5635L574.566 95.373ZM604.273 97.2773L617.413 120.034L617.032 120.224H590.943C590.943 119.907 595.037 112.702 603.226 98.6104C603.733 97.7217 604.083 97.2773 604.273 97.2773ZM570.662 97.563H571.043L583.992 120.034L583.516 120.224H557.999L557.523 120.034C565.584 105.878 569.964 98.3882 570.662 97.563ZM587.515 126.127L600.56 148.693V149.36H574.566C574.312 149.36 574.185 149.201 574.185 148.884C582.945 133.713 587.388 126.127 587.515 126.127ZM574.566 153.073H600.56C599.29 156.057 594.942 163.706 587.515 176.02C586.627 175.004 582.183 167.419 574.185 153.264L574.566 153.073Z" fill="black"/>
<path d="M590.943 124.223H617.032L617.413 124.414C610.494 136.601 606.05 144.187 604.083 147.17H603.892C595.259 132.189 590.943 124.541 590.943 124.223Z" fill="#EEAB00"/>
</svg>